<svg xmlns="http://www.w3.org/2000/svg" width="934.5" height="668.25" viewBox="0 0 934.5 668.25">
  <defs>
    <style>
      .cls-1 {
        fill-rule: evenodd;
      }
    </style>
  </defs>
  <path id="Color_Fill_1" data-name="Color Fill 1" class="cls-1" d="M59,1c43.633,0.011,97.564-5.484,123,13,11.728,8.523,20.836,24.012,25,40q2,15,4,30c8.186,29.337,15.636,57.1,27,83,16.846,38.4,42.25,69.571,66,101l12,11c10.662,10.758,22.952,22.954,32,35,30.615,40.758,60.345,83.21,82,133,9.835,22.612,17.221,46.869,25,71,4.651,14.426,4.994,27.78,9,43,4.122,15.659,10.06,41.652,4,60-5.443,16.478-18.261,30.65-32,39-13.583,8.255-32.743,8-55,8-40.907,0-69.55,2.443-93-15-21.451-15.957-19.348-40.416-28-69-9.448-31.213-19.444-61.527-35-87-12.893-21.113-28.423-39.709-43-59l-19-18c-12.4-16.364-27.851-30.489-40-47C84.375,320.505,50.583,261.211,28,193c-7.405-22.367-11.771-45.628-18-69-2.493-9.355-1.674-17.288-4-27C0.941,75.874,1.069,50.071,11,34A76.008,76.008,0,0,1,45,5C49.537,3.091,55.132,3.58,59,1ZM526,1c41.035,0.013,94.923-5.69,120,11,29.56,19.673,23.573,45.067,34,82,8,28.351,16.939,54.838,28,80,15.21,34.6,39.439,63.449,61,92,10.771,14.263,27.2,24.724,38,39,32.386,42.807,64.979,85.47,88,138,4.448,10.15,6.62,19.565,11,30,9.485,22.6,15.959,48.734,23,74,2.536,9.1,1.717,16.625,4,26,3.122,12.823,6.607,32.713,2,47-5.56,17.243-17.833,31.281-32,40-13.51,8.315-32.836,8-55,8-39.084,0-69.545,2.694-92-14-24.218-18-20.8-45.467-31-77-9.557-29.547-19.963-58.472-35-83-28.481-46.459-69.5-79.166-101-122-39.09-53.148-68.874-111.117-94-179-11.716-31.654-15.662-66.579-24-102-4.477-19.017-1.879-43.219,6-56,7.065-11.46,19.172-23.453,32-29Z" transform="translate(-2.719 -0.063)"/>
</svg>
