<svg xmlns="http://www.w3.org/2000/svg" width="1333.094" height="914.031" viewBox="0 0 1333.094 914.031">
  <defs>
    <style>
      .cls-1 {
        fill: #51483e;
        fill-rule: evenodd;
      }
    </style>
  </defs>
  <path id="Color_Fill_2" data-name="Color Fill 2" class="cls-1" d="M268,78l-1,3h2V80h6v1h1V80h4c0.73,0.267.418,2.248,2,2V81h2V80c3.024-.446,2.024,1.581,3,2h4v1a2.59,2.59,0,0,0,3-1c2.065-.313,2,1,2,1h6v2c6.045,0.078,8.254.829,13,0v2c1.871,0.306,1.9.965,2,1h5l1,3,3-1a40.893,40.893,0,0,0,10,2v2l6,1V94h3v3h1V96c3.78-.54,1.8,1.729,3,3h1v1c2.215,1.312,4,.15,6,0v2c8.145,0.024,11.446,3.587,18,5v2h4v2l6,1v2h4v2l7,1v1c-1.139,1.139-.4,0-1,2a9.749,9.749,0,0,1,4,1c-0.054,1.413-.758-0.393-1,1-1.889.86,2,1,2,1v-1l5,1v2l7,1-1,3h4v3h1v-1h3v3c3.955,0.339,2.907.964,6,0v2h-1v1h1c1.867,2.356,3.626,2.974,8,3v3h3v3l5,1v3a19.149,19.149,0,0,1,7,2l1,3c2.762,0.723,2.237.279,3,3,2.3,0.453,5.067.93,3,3,4.689,1.982,5.248-2.068,6,3h3v3c4.53,0.616,2.517.88,5,3v1h2l1,3,2-1v2c1.148,1.052,1.906.725,4,1v2h3v4h3v3h1v1h3v2h3v3h3q0.5,3,1,6h3c1.439,2.465,3.138,2.788,4,6l3,1v1h2v1c1.481,1.35,1.373.49,2,3h2v3h1v1h3c0.549,3.5.983,1.852,0,5l4,1v3h1c1.139-1.139,0-.4,2-1v3l2-1,3,8h2v2h2v3h3q0.5,1.5,1,3h3q0.5,3,1,6h3q-0.5,1.5-1,3h1c1.139,1.139,0,.4,2,1v2l2,1v4l4-1q-0.5,1.5-1,3h3q0.5,3,1,6h2c1.124,4.464,2.3,1.47,1,6h3a9.749,9.749,0,0,0,1,4l2-1v4c1.139,1.139.4,0,1,2h2c0.99,3.362,1.2,1.919,3,4h1q0.5,3,1,6l3,1v1h-1q0.5,1.5,1,3c2.739,0.644,2.276,1.309,5,2q-0.5,2.5-1,5h2q0.5,2.5,1,5h2v3h1v1h2c2.067,1,1.636,1.2,2,4h-1c-0.895,1.824.688,3.1,1,4h3a7.173,7.173,0,0,1-1,4h1v1c1.293,0.978,3.224-.448,4,1q-0.5,2.5-1,5l2,1v2l2-1q0.5,3.5,1,7h3q0.5,4.5,1,9h2c-0.113,3.16-1.955,1.874,1,3v3l2-1v1h1c1.045,1.9-.908,2.987-1,4h1c0.757,1.572.9,2.39,1,5h2q0.5,2.5,1,5h1a2.734,2.734,0,0,1-1,3v1h2c1.139,1.139,0,.4,2,1v10l2-1v1c1.234,1.129.415-.025,1,2h1c1.141,1.988-.669,5.153-1,6h3c0.281,4.952,1.866,5.32,2,11l2-1v4h-1c-1.843.95,2,1,2,1v4h1q-0.5,1.5-1,3l3,1c1.069,2.105-1.272,4.183-1,5h1c0.759,1.58.873,2.39,1,5l3,1v6h-1v1l2,1v7h1v1h-1v1h3q-0.5,2.5-1,5h1q0.5,2.5,1,5h-1v1h2q-0.5,4-1,8s0.979-.236,1,2h-1v1h2v3l2,1c0.494,1.677-.957,1.793-1,2v11h2q0.5,14.5,1,29h1v5h-1q0.5,3,1,6a1.666,1.666,0,0,0-1,2h1v2h1q-0.5,1.5-1,3v23h-2c0.4,2.171,1.912,4.823,1,8-0.177.616-2.185,7.222-2,8l2,1c0.593,1.284-.5.532-1,1-1.139,1.139,0,.4-2,1-0.118,5.937-.9,7.975,0,13h-3v1h1v5h-2a10.6,10.6,0,0,1,1,4h-2q-0.5,5-1,10h-2l-3,16-3,1q0.5,1.5,1,3h-4c-1.192-2.213-2.33-2.988-3-6h-2c-0.459-.286-5.692-10.693-6-12-3.795-.936-5.255-4.16-6-8h-2q-0.5-2.5-1-5h-2q-0.5-1.5-1-3h-1c-1.841-3.369,1.408-3.631-4-5q-0.5-3-1-6h-1c-2.137-2.552-2.289-.43-3-5h-2c-0.871-3.428-2.068-2.575-3-6h-2c-0.733-5.923-4.572-4.973-6-11l-3-1v-3h-2v-2h-2v-2h-3c-0.77-3.215-1.508-2.155-2-6h-4c-0.644-4.334-1.227-6.528-6-7v-5l-3-1v-3c-1.338-.677-1.312-1.53-2-2-2.775-1.895-4.029-1.174-5-5-1.783-.332-4.045-0.855-5-2q-0.5-1.5-1-3l-3-1v-4h-3v-2c-2.191-1.342-1.519-2.82-3-4h-2l-2-3-3-1v-2h-3v-2h-4v-4h-2v-1l-5-4-1-3h-5c-1.7-1.09.106-3.216-1-5h-1v-1c-0.936-.781-4.292-0.825-5-2v-2h-2l-1-2h-4c-0.644-2.739-1.309-2.276-2-5h-2v-2c-2.9-1.6-3.819-3.475-8-4l-1-4c-5.507-.664-4.816-3.533-11-4l-1-5-6-2v-2h-3v-1c-2.262-1.591-2.917-3.128-6-4-1.939-6.3-9.171-3.487-11-10l-6-2v-2h-3v-1c-1.139-1.139-.4,0-1-2l-5-1c-0.9-3.7-3.23-4.344-7-5v-2l-7-2v-2h-3v-1c-1.139-1.139-.4,0-1-2-4.045-.843-4.98-3.058-9-4v-2l-6-1v-2l-5-1-1-4c-2.275-.263-2.6-0.134-4-1v-1h-3l-2-3-4-1v-1c-2.732-2.214-3.153-3.607-8-4v-2h-3v-2h-4v-3h-1v-1h-4l-2-3h-3l-3-5h-4l-1-2a12.2,12.2,0,0,0-6-3v-2c-3.215-.77-2.155-1.508-6-2-0.792-3.079-1.883-3.376-5-4v-2h-4v-2c-3.62-1.606-5.85-4.049-10-5v-3l-5-1v-1c-2.189-1.627-2.961-3.141-6-4v-2c-5.1-2.076-7.321-5.72-13-7v-3h-3l-2-3c-1.127-.8-4.26-0.8-5-2v-2h-2v-2c-2.669-.69-3.146-1.616-5-3v-1h-3v-1l-3-1-1-5-3-1v-1c-2.567-1.781-1.912,1.082-3-3-2.953-.311-5.777-1.107-7-3-2-3.1,1.759-2.466-3-4v-2c-2.352-1.079-3.249-2.293-6-3v-2c-3.681-1.518-6.086-2.552-7-7h-2v-2h-2v-3h-2v-1a21.266,21.266,0,0,1-4-3h-1v-2c-2.762-.723-2.237-0.279-3-3-1.139-1.139-.4,0-1-2h-3v-2c-2.128-1.212-2.177-2.252-5-3v-4a19.168,19.168,0,0,0-7-1v-4h1v-1h-1v-2c-3.215-.77-2.155-1.508-6-2q-0.5-4.5-1-9c-2.762-.723-2.237-0.279-3-3h-3v-4l-4-1q-0.5-2-1-4h2v-1c-1.719-1.127-1.355-.633-2-3h-2v-3h-1c-1.139-1.139,0-.4-2-1-0.239-1.734-1-2-1-2-0.46-1.538,1.145-3.849,1-4l-4-1q-0.5-3-1-6c-2.444-.574-2.206-1.047-4-2v-1h1q-0.5-1.5-1-3h-2v-2h-1v-5h-1v-2l-2-1q-0.5-3-1-6h-2v-2h-2q0.5-3,1-6l-2-1v-5l-2-1v-3l-2-1v-2h-1v-6h-1v-2h-1q-0.5-3-1-6h-1v-7h-1v-3h-1v-2h-1c-1.09-3.159,1.489-4.813,1-7h-1v-3a9.771,9.771,0,0,1-2-2h3v-3h4v-3c3.543-.317,3.949-1.314,7-2q0.5-1.5,1-3h3c0.826-3.2,1.179-2.9,5-3v-2c2.965-.7,2.294-1.68,3-2,2.557-1.162,4.953.279,7-1l2-3h3V94l3,1c-0.549-2.784-.77-0.1,0-3l10-1,1-2h3l1-2h5l1-2h7V84l16-2V80l31-1v2h4c0.06-1.413-.172.147-1-1-1.142-1.581,2.458-.931,3-1V78h3Zm615,61q0.5,1.5,1,3h-1v2l-2,1q-0.5,2.5-1,5l-2,1c-1.367,1.7-1.675,3.169-2,6h-2q-0.5,1.5-1,3h-1v3l-2,1c-1.375,1.715-1.652,3.164-2,6h-2c-1.191,5.69-5.622,7.991-7,14h-2q-0.5,2.5-1,5l-2,1q-0.5,2-1,4l-2,1q-0.5,2.5-1,5l-3,2v3h-1q-0.5,2-1,4h-1a21.426,21.426,0,0,0-3,9h-2q-0.5,3-1,6l-2,1v3l-2,1v2h-1c-0.248,1.872,1.33.228,0,4l-3,1q-0.5,3-1,6h-2c-0.11,4.651-1.868,6.872-3,10q-1,4.5-2,9l-2,1q-0.5,3-1,6l-2,1v3h-1v2h-1q-0.5,5-1,10l-3,2v4h-1v2h-1v4h-1v6l-2,1v2h-1q-0.5,5-1,10h-1v2h-1v4h-1v2h-1q-0.5,5.5-1,11l-2,1v6h-1v6h-1v2h-1v5h-1v5h-1v3h-1v4h-1q0.5,2.5,1,5h-1v3h-1v7h-1q-0.5,5-1,10h-1v4h-1v4h-1v10h-1v6h-1v9h-1v6h-1v7h-1v3h-1q0.5,2.5,1,5h-1q-0.5,3-1,6h-1q0.5,3,1,6h-1v5h-1q-0.5,4.5-1,9l-2,1v13c-0.134,4.8-2.268,6.506-3,10q0.5,2.5,1,5h-1v2h-1v4h-1q-0.5,6.5-1,13h-1v6l-2,1q-0.5,6-1,12l-2,1v9h-1v3h-1v2h-1v7h-1v2h-1q-0.5,2.5-1,5h-1v8h-1v3h-1v2h-1q-0.5,3-1,6h-1v6h-1v3l-2,1v3h-1v2h-1q-1,6-2,12l-2,1q-0.5,3-1,6l-2,1v3l-2,1q-1,5-2,10h-2q-1,4.5-2,9l-2,1-3,9-2,1q-0.5,2.5-1,5h-1a9.023,9.023,0,0,0-2,4h-2v4c-3.518,2.151-3.676,5.653-6,9l-3,2q-0.5,1.5-1,3l-2,1v3l-3,2v2l-2,1v2h-1c-1.825,2.22-3.23,3.624-4,7h-2c-0.871,3.428-2.068,2.575-3,6h-2q-0.5,1.5-1,3l-3,2v2l-2,1c-2.233,2.361-6.114,5.61-7,9-4.073,1.187-1.056.775-3,3-1.044,1.194-3.162,1.569-5,2-0.705,3.087-1.949,4.254-5,5v2l-3,1-5,6h-2l-2,3h-2l-2,3c-1.6.947-2.817-.131-4,1v2h-1v-1c-3.366,1.193-3,.4-7,0v-2h-5v-3h-1c-1.139,1.139,0,.4-2,1,0.054-1.413.758,0.393,1-1,1.889-.86-2-1-2-1v-1l-3,1v-3h-5v-3h-1c-1.139,1.139,0,.4-2,1v-3l-3,1v-4c-1.178-.782-0.61.811-1,1-1.273.615-.665-0.472-1-1-1.139-1.139-.4,0-1-2l-4,1v-3h-2v-3h-3v-3h-3q-0.5-2.5-1-5h-3v-3h-3v-1h1v-1h3c0.723-2.762.279-2.237,3-3v-1c1.128-.642,2-0.055,2,1h1v-2h1v-1h-1c-0.979-1.654,1.44-.846,2-1q-0.5-1.5-1-3h2v-1h4v-2h3v-4l3-1v-3h1v-1h3q-0.5-1.5-1-3a9.749,9.749,0,0,0,4-1v-3h3c0.044-3.375,2.9-7.883,1-9h2c0.092-2.51.037-3.57,1-5h1v-2l2-1q1-3,2-6l4-3v-2l2-1v-2l2-1v-2h1v-2h1v-2h1c0.9-1.677,2.84-8.308,4-9h2q-0.5-2-1-4l2,1v-2h1v-2h1v-5l2-1q0.5-4,1-8h2V605h3c-0.489-3.343-.994-3.137,0-7h1a23.891,23.891,0,0,1-1-4h2q0.5-7,1-14h2q-0.5-3-1-6s1.058-.038,1-2h-1v-1h1v-3h1c1.422-4.759-4.816-6.936,2-9q-0.5-7-1-14h1V531l-2-1c-0.518-1.659.966-1.823,1-2q-0.5-3.5-1-7h1v-5h-1q-0.5-15.5-1-31h-2q-0.5-9.5-1-19h-2q-1-11.5-2-23h-2q-0.5-2.5-1-5a1.7,1.7,0,0,0,1-2h-1v-3h-1v-8l-3-1q0.5-1.5,1-3l-3-2q0.5-3,1-6h-3v-7l-2-1q0.5-2.5,1-5h-3c0.034-5.174-1.187-7.135-2-11h-2q0.5-2,1-4h-1q-0.5-2.5-1-5h-3v-1h1q-0.5-2.5-1-5h1v-3c-2.078-1.094-1.771-1.611-5-2v-6l-2-1q0.5-1.5,1-3h-3v-1h1q-0.5-2.5-1-5c-2.01-.574-0.865.12-2-1h1v-3h-3q0.5-1,1-2l-2-1q0.5-1.5,1-3h-1c-1.139,1.139,0,.4-2,1v-2h1v-1h-1q-0.5-3.5-1-7h-1c-1.055-1.322-.376-0.842-2,0v-2h-1q-0.5-1.5-1-3h1v-3h2q0.5-3,1-6l3-1v-3h2q0.5-3,1-6h1c2.767-3.514,1.547-.331,4-2,1.212-.825,3.55-6.852,4-9h2v-4h3c1.1-4.969,3.754-4.648,4-11h4c1.049-2.4,1.12-3.212,4-4q0.5-2.5,1-5h2c0.723-2.762.279-2.237,3-3v-3l4-1v-5c2.762-.723,2.237-0.279,3-3h3v-3c2.762-.723,2.237-0.279,3-3h2v-3l4-1c0.644-2.739,1.309-2.276,2-5h3v-1c1.139-1.139.4,0,1-2h3v-4h2v-2h3c-0.549-2.784-.77-0.1,0-3h3c0.684-2.927,1.113-3.274,4-4v-2h2c1.439-2.465,3.138-2.788,4-6l5-1q0.5-1.5,1-3h3v-3h2c0.723-2.762.279-2.237,3-3v-2c4.586-.653,2.458-0.91,5-3v-1h3v-2h3v-3l5-1v-2c2.762-.723,2.237-0.279,3-3l6-1v-2h3v-3l5-1v-2l6-1v-2c4.586-.653,2.458-0.91,5-3v-1h3v-2l6-1v-2c2.732-.232,7.238-0.593,5-3l6-1v-2l6-1v-2l6-1v-2l6-1v-2l5-1v-2h2q-0.5,1-1,2h3v-2l6-1v-2l9-1v-2l9-1v-2l12-1v-2l15-1v-2Zm51,4v2c1.728-.868.342-0.115,1-2h1v2l8,1v2c1.139-1.139.4,0,1-2h2c0.723,2.762.279,2.237,3,3v2a40.116,40.116,0,0,1,9,1v2l5,1v2a34.651,34.651,0,0,0,7,1v3h3v2h4q0.5,1.5,1,3l6,1v2a15.682,15.682,0,0,0,6,1c0.262,3.176,1.01,3.822,2,6l4-1q0.5,3,1,6h5c0.32,3.543,1.31,3.949,2,7h5v3h2v3h3c0.33,2,.67,4,1,6h2v2h3c-0.11,3.16-1.95,1.874,1,3v3h3v3l3,1v3h2c-0.08,2.326-.81,2.566-1,4h1a9.432,9.432,0,0,1,1,4h2v3c0.67,0.333,1.33.667,2,1,0.33,1.667.67,3.333,1,5h1c1.14,1.139,0,.4,2,1-0.33,1-.67,2-1,3h1v-1c1.58-1.142.93,2.458,1,3h-1v1h1c1.14-1.139,0-.4,2-1-0.57,2.444-1.05,2.206-2,4h3v3h2v3h-2c1.21,2.128,2.25,2.177,3,5h2v4h-2a8.154,8.154,0,0,0,2,2v4h1c1.14-1.139,0-.4,2-1-0.33,1-.67,2-1,3h-1c0.33,1,.67,2,1,3h1q0.495,6,1,12h2c0.14,5.319,1.54,8.821,0,13h3v8h-1v1h1v2h1a2.66,2.66,0,0,1-1,3v1h1v5h2v14h-2c1.14,1.139,0,.4,2,1,0.18,8.081,1.29,12.42,0,17v7h-1c-1.14,1.139,0,.4-2,1,0.33-1,.67-2,1-3h-9v3c-3.69-.4-11.51,0-18,0v2h-3v-2c-1.14,1.139-.4,0-1,2l-18,1v2l-12,1v2l-8,1v3l-5-1v1c-1.139,1.139-.4,0-1,2-6.921.558-8.708,3.557-15,4v2c-0.915,1.4-2.486.071-4,1l-3,4h-2q-0.5,1-1,2h-3l-2,3h-3l-2,3h-1c-1.052,1.864.678,3.889-1,5h-2c-1.139,1.139,0,.4-2,1v2c-2.762.723-2.237,0.279-3,3-2.762.723-2.237,0.279-3,3h-2c-1.439,2.465-3.138,2.788-4,6h-2c-0.979,3.374-1.212,1.913-3,4h-1v2h-2q-0.5,1.5-1,3l-3,2v3h-1q-0.5,1.5-1,3h-1a11.878,11.878,0,0,0-1-5c-1.135.844-.145-0.127-1,1h-1v4a9.749,9.749,0,0,0-4,1v1h1c1.889,0.86-2,1-2,1-0.5,3.861-2.012,4.768-4,7l-2,1v3h-2q0.5,1.5,1,3h-2q-0.5,3.5-1,7c-2.444.574-2.206,1.047-4,2q0.5,1.5,1,3h-2v3h-3v1h2v4l-3,1v3h-2v3h-2q0.5,1.5,1,3h-2q-0.5,5-1,10h-2v7l-2,1q0.5,1.5,1,3h-3v1h1v5h-3q-0.5,6.5-1,13h-2q-0.5,10.5-1,21h-2v14h-2c2.508,6.779,1.052,19.422,1,28h-3v2l2-1v1h1v8h-1v1h1v5h-1v1h1v4c0.027,2.009.795,9.982-1,10v1h2v15h2v4h-2c1.139,1.139,0,.4,2,1q0.5,9.5,1,19h2q0.5,9.5,1,19l3,1a7.173,7.173,0,0,1-1,4h1c1.139,1.139,0,.4,2,1q0.5,6.5,1,13h2v7h1c0.5,1.66-1.235,3.7-1,4h2c1.06,1.14.717,1.914,1,4h-2c-1.212,2.128-2.252,2.177-3,5l-6,1v3c-3.215.77-2.155,1.508-6,2v3a11.58,11.58,0,0,0-5,2v1h-3v1c1.139,1.139.4,0,1,2h-5v2h-1v1c-3.118,2.205-4.228-1.8-6,4h-3v2l-5,1v2l-6,1q-0.5,2-1,4h-2v-1c-1.338-.35-2.535,2.775-3,3h-5l-3,5-9,1v2l-6,1v2l-5,1q-0.5,1-1,2a7,7,0,0,1-6,0v1c-1.139,1.139-.4,0-1,2-2.8-.028-5.2.021-7,1q-0.5,1-1,2l-3-2v2l-5,1q-0.5,1-1,2l-12,1v2l-12,1v2c-9.3-.088-11.066,1.009-19,1v2H717v1l-4-1v1l-3-1v1c-2.034.306-2-1-2-1-3.412-.765-12.891-0.014-19,0v-2l-3,2c-0.925-.54-0.344-1.844-2-2v1l-3,1v-3h-1v1l-3-1v1h-2c0.216-4.864,1.068-3.385,2-7h2c1.187-4.073.775-1.056,3-3,1.194-1.044,1.569-3.162,2-5,2.762-.723,2.237-0.279,3-3h2v-2h1a21.266,21.266,0,0,1,3-4v-1h2v-2h2c1.107-4.237,3.875-4.177,5-9h2a7.576,7.576,0,0,1,2-4h1q0.5-1.5,1-3h2q-0.5-1-1-2l2-1,2-3h1v-2h1a7.792,7.792,0,0,0,2-4c3.079-.792,3.376-1.883,4-5h2v-3h2c1.3-5.345,5.692-7.419,7-13h2v-3h1c1.139-1.139,0-.4,2-1v-3h2q1-3,2-6l3-2v-2c2.691-4.016,6.262-6.875,7-13h2c0.992-3.966,2.672-3.627,3-9h2v-1h1v-3l2-1v-2h1v-2l2-1c1.485-2.384,1.775-4.493,2-8l3-1v-3h2c0.365-3.112.722-3.106,2-5h1q0.5-3,1-6h2c0.165-3.62.573-3.974,2-6h1v-3h1v-2l2-1v-3l2-1q0.5-2,1-4l2-1v-2h1q0.5-3,1-6l2-1v-3h1v-3h1v-3h1v-4l2-1q0.5-2.5,1-5l2-1q0.5-2.5,1-5h1v-2h1v-4h1v-4h1v-2h1v-3h1v-3h1v-2h1q0.5-2,1-4h1l3-15h2q0.5-3.5,1-7h1c-0.2-1.1-1.966-2.8-1-5l2-1q0.5-2.5,1-5h1v-6h1v-3h1v-4l2-1v-3h1q0.5-5,1-10h1v-2h1v-4h1v-4h1v-5h1v-4h1v-8h1v-2h1v-9l2-1v-3h1v-8h1v-2h1V417h1v-2h1v-5h1v-1a2.6,2.6,0,0,1-1-3h1q0.5-3,1-6h1c-0.128-1.3-1.884-3.443-1-6h1v-2h1v-9h1v-4h1v-4h1V363h1q0.5-7.5,1-15h1v-5h1v-5h1q0.5-7.5,1-15h1v-4h1v-4h1v-9h1v-7h1v-4h1q0.5-8,1-16h1v-2h1q0.5-6.5,1-13h1v-3h1v-7h1v-3h1v-2h1v-8l2-1,3-14h1v-3h1l3-9h2c0.343-7.056,5.114-8.963,6-16h2q0.5-3,1-6l2-1v-3l2-1v-2l2-1v-3l2-1v-2h1v-2h1v-2h1v-2l2-1v-3l3-2v-2l2-1v-3l3-2v-2l3-2q0.5-2.5,1-5h2q0.5-3,1-6C925.493,141.826,927.538,142.691,934,143ZM123,169h4c-0.734,3.919-.717,4.086,0,8h2c0.516,6.833,3.738,9.188,5,15l3,1q0.5,3,1,6h2q0.5,3,1,6h2q0.5,2.5,1,5h2a17.91,17.91,0,0,0,3,10l2,1v3h1v2h1q0.5,1.5,1,3h2v4l3,1v2h2v5h1c1.275,1.944,1.546,1.879,2,5h2v2h2q0.5,3,1,6l3,1q0.5,3,1,6h1v1c2.821,2.055,2.591-1.8,4,3h2l-1,3h1c0.581,1.208,1.741,1.556,2,2,1.817,3.122-1.767,2.639,3,4v2l7,5c-1.139,1.139,0,.4-2,1,0.723,2.762.279,2.237,3,3,0.589,4.973,2.848,4.146,4,9h2v2h2c0.564,4.827,1.879,2.94,3,7h2c0.763,3.16,2.227,3.65,3,7h3v2h2q0.5,2,1,4c4.81,1.337,1.158.951,3,4,1.684,2.788,3.389.433,4,6h2c0.841,3.982,3,4.373,4,8h2v2l8,6v2c2.491,3.349,4.642.765,6,7h2v2h2v2h2q0.5,2,1,4c2.762,0.723,2.237.279,3,3h3v1c2.448,2.054.966,2.836,5,4v2l4,1,1,4h2v2c4.077,1.176,1.05.738,3,3h1v1l4,1v1c1.778,1.43,2.394,2.277,5,3,0.663,3.818,1.759,5.583,6,6v3h3c1.973,3,2.825.941,4,5h3v2h2l1,4c3.515,0.915,2.853,2.433,7,3v2c4.077,1.173,1.05.738,3,3h1v1l4,1v1a13.173,13.173,0,0,0,6,3v2h2v2c2.927,0.684,3.274,1.113,4,4l5,1v2h3v2c2.762,0.723,2.237.279,3,3,3.686,0.326,4.21.818,5,4l3,1v1h2l1,2,5,1v2h2v2c2.762,0.723,2.237.279,3,3,4.336,0.488,2.641,1.423,7,2v2h3v1c1.139,1.139.4,0,1,2h6v4c4.01,1.048,4.056,3.412,9,4v2h3v1c1.361,1.166,1.528,1.825,2,4,3.9,0.2,5.793,1.147,8,3l1,2h2c2.876,1.69,3.5,3.428,8,4v3l6,1c0.738,3.217,1.357,3.641,5,4v2l5,1v2l6,1v2h3v1c1.139,1.139.4,0,1,2l5,1v2l5,1v2h2v2a12.018,12.018,0,0,1,7,3l1,2h2l1,2h2v1h3l3,4h3l1,2c1.429,1.153,2.9,1.5,5,2v2a15.682,15.682,0,0,0,6,1v3h3v1c1.139,1.139.4,0,1,2h3l1,3h3v2c2.311,0.362,6.689,1.634,8,3,1.139,1.139.4,0,1,2,2.762,0.723,2.237.279,3,3h3v1l3,1v1c2.794,1.835,4.064,1.2,5,5h4v2h2c1.242,4.057.329,1.153,3,3q0.5,1,1,2h4q0.5,1.5,1,3c2.163,2.564,3.584-.072,5,5h2v2c1.8,0.945,1.574,1.385,4,2v1h3v2h2c0.922,8.227,5.356,3.707,6,12l5,1q0.5,2,1,4h2c0.915,3.515,2.433,2.853,3,7,2.927,0.684,3.274,1.113,4,4,4.783,1.419,1.16.841,3,4l2,1v2l3,1c1.311,1.033,3.534,6.049,4,8h2c0.488,4.336,1.423,2.641,2,7l4,1c1.017,4.334,3.964,6.565,5,11h3v1h1v6h1c1.139,1.139,0,.4,2,1,0.77,3.215,1.508,2.155,2,6h5q-1,4.5-2,9h-2v4c-2.762.723-2.237,0.279-3,3h-2v3c-2.989.38-2.727,0.072-4,2h1c1.449,1.378-2.712.956-3,1q-0.5,3-1,6c-3.16-.113-1.874-1.955-3,1h-3v1h-1q-0.5,3-1,6a9.749,9.749,0,0,1-4-1c-0.644,2.739-1.309,2.276-2,5h-6q-0.5,2-1,4h-3q0.5,1,1,2h-4c-0.8,3.506-1.772,3.9-6,4v3l-7,1q-0.5,2-1,4c-2.915.03-5.365-.182-7,1q-0.5,1-1,2h-6c-2.01,7.361-6.778,1.454-11,5-1.139,1.139-.4,0-1,2-5.859.5-10,1.928-17,2l-1,3a42.6,42.6,0,0,0-13,2l-10-1v1h-8v1c-2.009.36-3.76-1.88-7-1v1h-6v1c-2.953.424-2.351-1.818-3-2-1.694-.476-1.766.949-2,1H446v-1h-1v1h-5v-3h-1c-2.459,2.273-10.925.171-15,0v-2c-3.885.293-7.315,1.378-12,0v-1h-6l-2-3h-1v2h-4v-2h-2l1-2H388l-1-2c-2.2-1.309-5.573-.967-9-1v-2l-3,1v-2h-3v-2l-3,1v-2l-6,1v-2l-6-1v-2a39.688,39.688,0,0,0-8-1l1-3h-2c-1.139,1.139,0,.4-2,1v-3l-7-1v-2h-3v-1h-1v1c-1.373-1.112-.358.006-1-2a34.651,34.651,0,0,0-7-1l1-3a29.413,29.413,0,0,1-7-1v-2h-2v-2l-6-1v-2l-5-1v-2h-2v-2l-3,1-1-3h-5c0.549-2.784.77-.1,0-3h-3l-1-3h-3v-3l-4,1c-0.684-2.927-1.113-3.274-4-4v-2l-5-1c-0.481-1.8-.105-2.73-2-3-0.256.212,0.156,1.815-1,1l-2-3h-2c0.565-3.053.888-3.476-4-4v-2l-4-1v-2c-2.739-.644-2.276-1.309-5-2v-2l-2,1v-1c-1.587-1.354-1.737-2.169-2-5h-5l1-3h-2c-1.077-.923.076-0.663-2-1v1h-1v-1c-1.139-1.139-.4,0-1-2h-2v-3h-3v-2h-3v-4l-3-1v-2h-5q-0.5-3-1-6c-3.825-.984-1.428-0.3-3-3l-2,1v-1l-2-1q0.5-1,1-2h-3a9.749,9.749,0,0,0-1-4h-1v1c-0.86,1.889-1-2-1-2h-3a7.173,7.173,0,0,1,1-4h-1v-1h-4v-3h-4l1-3h-3v-2h-2l-2-6h-1c-2.44-2.619-2.257-.212-3-5h-2q0.5-1,1-2c-0.387-.217-3.353-0.722-4-1l1-3h-1v1c-0.86,1.889-1-2-1-2h-3v-1h-1c-0.642-1.128-.055-2,1-2v-1h-2v-3h-3q0.5-1,1-2h-1c-1.129-1.234.025-.415-2-1-0.224-2.268-.128-2.625-1-4h-1v-3l-2,1,1-3-3-1q0.5-1,1-2h-1c-1.139,1.139,0,.4-2,1v-3h-3q-0.5-3.5-1-7h-3l1-3h-1v-1h-3q-0.5-3-1-6h-2l-1-3-2,1v-1h-1q-0.5-3-1-6h-2q-0.5-2.5-1-5h-2c-0.66-4.847-2.507-3.4-1-8h-3q-0.5-2.5-1-5h-1c-1.139,1.139,0,.4-2,1v-1h1c0.856-2.412-1.583-2.09-2-3v-2h-2c-0.473-3.518-.344-3.206-1-7l-3,1v-3h1c0.021-.6-0.888-1.85-1-4h-3q-0.5-3-1-6h-3q-0.5-4.5-1-9l-3-1v-3l-3-1c0.06-1.5-.8-5.12,1-5v-1h-2v-5l-3-1v-1h-1c-0.576-1.605-.172-3.678,1-4v-1h-3l1-2-2-1v-4l-3-2v-4h-1l1-2h-2c-1.329-1.357-1.014-4.292-1-7h-2a11.878,11.878,0,0,1,1-5l-3,1v-6c-1.139-1.139-.4,0-1-2-3.586-.936-3.156-2.61-3-7h1v-3H94a9.746,9.746,0,0,1,1-4l-3,1-1-6H90l1-3H90v-4l-2,1v-4H87c-0.96-1.683.761-5.865,1-7H86v-4h1l-1-5H83l1-6H83c-0.357-1.369.718,0.386,1-1v-1H83v-3H82v-2H81c-0.283-1.386.668,0.375,1-1v-4H80v-2H79v-1h1l-1-13H78v-6H77l1-2H77c-0.719-2.851-.763-13.791,0-14H75l1-10H75v-1h1v-1H75l1-15H75V270a2.629,2.629,0,0,1-1-3h1v-9l2-1c-0.108-1.412-1.567-1.61-1-4h1l-1-7,2-1-1-6,2-1,1-12h2c-1.052-2.6-1.125-6.863,1-9,1.139-1.139,0-.4,2-1-0.444-2.224-1.864-3.473-2-5h1a10.021,10.021,0,0,0,1-4h2v-7h1v-1H87v-1h1v-2h1v-2h1c0.906-1.383.694-1.75,1-4h2c-0.707-2.592-1.441-1.129,0-4,0.635-1.264.846,0.406,1-1l-1-3,2,1,1-5h2l1-7,2-1v-5h1c1.918-2.309,1.833-.228,3-4h2q0.5-3,1-6h3q-0.5-2-1-4h3v-1l2-1v1c1.822,1.205,3.245,3.935,4,6v4h1C121.592,163.245,122.758,164.367,123,169Zm913,199c12.56-.033,21.9.84,28,0v2h5v-2h3v2h5v1h1a1.832,1.832,0,0,1,2-1v1c1.35,0.042,1.65-1.688,4-1v1h2v1c0.6,0.049,2.05-.916,4-1v2h5v1h1a2.794,2.794,0,0,1,3-1v1h2v1c0.58,0.053,2.05-.928,4-1v2l3,1a2.639,2.639,0,0,1,3-1v1h2v1c0.55,0.051,2.08-.921,4-1v2a34.672,34.672,0,0,0,7,1v2l6,1v1h1v-1l5,1v2l6,1v2c1.14-1.139.4,0,1-2h2v2h3v1c1.14,1.139.4,0,1,2l6,1v2c6.9,0.03,8.93,2.791,14,4v2l6,1v2l6,1c0.72,2.762.28,2.237,3,3v2l6,1c0.72,2.762.28,2.237,3,3v2l6,1v2l6,1v3h3c0.33,1,.67,2,1,3h3v2l5,1c0.72,2.762.28,2.237,3,3v2l5,1c-0.33,1-.67,2-1,3h3v2l5,1v3h3v2h3c0.65,1.322,1.58,1.36,2,2-0.33.667-.67,1.333-1,2h3v2c2.76,0.723,2.24.279,3,3l5,1c0.72,2.762.28,2.237,3,3,0.72,2.762.28,2.237,3,3,0.72,2.762.28,2.237,3,3,0.72,2.762.28,2.237,3,3,0.72,2.762.28,2.237,3,3v2h3v3h1c1.14,1.139,0,.4,2,1,0.72,2.762.28,2.237,3,3,0.72,2.762.28,2.237,3,3,0.72,2.762.28,2.237,3,3,0.33,1.666.67,3.334,1,5h3v3c2.76,0.723,2.24.279,3,3,2.76,0.723,2.24.279,3,3l3,1v3h2c0.72,2.762.28,2.237,3,3,0.33,1.666.67,3.334,1,5l3,1v3h3v2h2c0.33,2,.67,4,1,6,2.76,0.723,2.24.279,3,3h2v3h3v3h1c1.14,1.139,0,.4,2,1,0.33,1.667.67,3.333,1,5h2v3h1c1.14,1.139,0,.4,2,1,0.33,2,.67,4,1,6h3v3h2c0.33,2,.67,4,1,6h2c0.33,1.667.67,3.333,1,5h2v3h1c1.14,1.139,0,.4,2,1,0.33,1.667.67,3.333,1,5h2v3h1c1.14,1.139,0,.4,2,1,0.33,2,.67,4,1,6h2c0.33,1.667.67,3.333,1,5,3.59,0.936,3.16,2.61,3,7h2c0.33,1.667.67,3.333,1,5h2v3h1c1.14,1.139,0,.4,2,1a33.744,33.744,0,0,0,1,8h2v3h1c1.14,1.139,0,.4,2,1,0.33,3,.67,6,1,9h2c0.33,2,.67,4,1,6h2c0.33,3,.67,6,1,9h2c0.33,1.667.67,3.333,1,5h2c-0.33,1-.67,2-1,3,0.67,0.333,1.33.667,2,1v5h2c0.33,3,.67,6,1,9,4.41,1.188,3.26,4.731,3,10h2a39.261,39.261,0,0,1,1,8h2c0.33,3.333.67,6.667,1,10h2q0.495,6,1,12h2c0.33,3.333.67,6.667,1,10h2q0.495,8.5,1,17h2q0.495,10.5,1,21h2v16h1v19q-0.495,23-1,46h-2q-0.495,9-1,18h-2q-0.495,6-1,12h-2c-0.33,3.333-.67,6.667-1,10h-2c-0.33,3-.67,6-1,9h-2c-0.33,2.666-.67,5.334-1,8h-2c-0.33,2.333-.67,4.667-1,7h-2v3a7.161,7.161,0,0,0-4,1v-1c-0.67-.333-1.33-0.667-2-1-0.33-1.667-.67-3.333-1-5h-1v-2c-0.67-.333-1.33-0.667-2-1v-3h-1a8.51,8.51,0,0,1-2-4h-2c0.33-.667.67-1.333,1-2h-2a16.1,16.1,0,0,0-4-9c-0.67-.333-1.33-0.667-2-1v-3h-2c-0.25-2.252-.1-2.638-1-4h-1v-2h-1v-2c-0.67-.333-1.33-0.667-2-1v-3c-1.33-1-2.67-2-4-3-0.67-2-1.33-4-2-6-1.33-1-2.67-2-4-3v-2c-0.67-.333-1.33-0.667-2-1v-3c-0.67-.333-1.33-0.667-2-1a14.183,14.183,0,0,1-4-7h-2a7.855,7.855,0,0,0-2-4h-1c-0.33-1.333-.67-2.667-1-4h-1a8.285,8.285,0,0,1-2-4h-2v-3h-1c-1.14-1.139,0-.4-2-1v-2c-2.69-1.806-3.12-4.335-5-7l-3-2c-1.97-2.757-1.14-3.967-5-5v-2h-2c-0.33-.667-0.67-1.333-1-2h-1v-2c-0.67-.333-1.33-0.667-2-1v-2l-3-2v-2h-2v-2l-6-5v-1c-1.97-1.46-.8.826-3-2h-1v-2h-2c-1.17-4.431-3.76-3.55-5-8-8.62-2.3-10.15-13.767-19-15-1.17-4.431-3.76-3.55-5-8-3.16-.763-3.65-2.227-7-3v-2c-2.46-1.339-3.29-3.818-5-5-1.14-.788-4.29-0.809-5-2v-2h-2c-0.79-3.079-1.88-3.376-5-4v-2l-4-1v-2q-7.005-5-14-10v-2h-3a18.237,18.237,0,0,0-6-6h-2c-0.33-.667-0.67-1.333-1-2-2.65-2.48-5.48-5.451-10-6v-2c-4.12-1.009-5.04-3.9-9-5-0.33-1-.67-2-1-3h-3v-2h-3c-2.32-3.8-4.47-3.636-8-6-0.33-.667-0.67-1.333-1-2h-2c-1.33-1.667-2.67-3.333-4-5l-4-1-3-4-4-1-3-4h-2v-1h-2v-1c-2.75-1.7-1.84.916-3-3h-2v-2c-0.91-1.4-2.44-.1-4-1-0.33-.667-0.67-1.333-1-2h-2c-2.76-1.915-.9-3.4-6-4v-2c-4.43-1.168-3.55-3.76-8-5v-2c-5.64-.682-3.24-2.492-6-4h-2v-2h-2v-2c-1.67-.333-3.33-0.667-5-1v-2a32.124,32.124,0,0,1-9-6c-0.67-1-1.33-2-2-3h-2c-0.67-1-1.33-2-2-3h-2l-3-5c-3.5-2.74-6.5-.468-8-6h-2v-2q-4.995-3.5-10-7v-2c-0.67-.333-1.33-0.667-2-1v-1h-2c-0.33-.667-0.67-1.333-1-2-2.57-1.869-1.83,1.079-3-3h-3v-3l-12-10v-2l-6-5v-1h-2v-2c-3.09-.705-4.25-1.949-5-5h-2v-2c-5.12-3.415-6.22-11.191-13-13-0.87-3.428-2.07-2.575-3-6h-2v-2c-1.38-1.181-.97-1.829-2-3-0.67-.333-1.33-0.667-2-1-0.33-1-.67-2-1-3h-2c-0.33-1.667-.67-3.333-1-5h-2v-3h-1c-1.139-1.139,0-.4-2-1-0.349-7.291-5.5-8.716-7-15h-2q-0.5-2.5-1-5h-1v-2l-2-1v-3l-2-1v-3h-1v-2l-2-1v-3h-1v-2l-2-1v-3h-1v-2l-2-1v-3h-1q-0.5-2-1-4h-1v-3h-1v-4l-2-1q-0.5-4-1-8h-2q-0.5-4-1-8h-1q-0.5-2-1-4h-1v-8l-2-1v-2h-1V412l-2-1v-5a17.015,17.015,0,0,1,0-8h2v-2h3v-1c1.139-1.139.4,0,1-2l6-1v-1c1.889-1.321,1.916-1.549,5-2,0.574-2.01-.12-0.865,1-2v-1h3q0.5-1,1-2h2v-1h5v-1h2q0.5-1,1-2c1.611-1.211,4.1-.959,7-1v-2l10-1c0.33-.667.67-1.333,1-2l8-1c0.33-.667.67-1.333,1-2l3,1v-1l19-1v-2ZM953,493h2c0.434,5.268,2.947,6.572,4,11h2q0.5,2.5,1,5l2,1v3l2,1q0.5,2,1,4h1v2h1v2h1v2h1v3l3,2v3l3,2v2l2,1v3l3,2v3l2,1c1.155,1.431,1.494,2.9,2,5h2v3h1c1.139,1.139,0,.4,2,1q0.5,2.5,1,5h2c0.432,4.494,2.332,5.173,4,8v2l3,2v2c0.67,0.333,1.33.667,2,1,0.33,1.333.67,2.667,1,4,0.67,0.333,1.33.667,2,1,0.33,1,.67,2,1,3h1a8.173,8.173,0,0,1,2,4h2v3h1c1.14,1.139,0,.4,2,1,0.33,1.667.67,3.333,1,5h2v3h1c1.14,1.139,0,.4,2,1v3l3,2v2c1.85,2.591,3.77,1.66,5,6,2.76,0.723,2.24.279,3,3h2c2.32,1.412-.09,3.558,5,5,0.33,1.667.67,3.333,1,5h2c0.33,1.333.67,2.667,1,4,4.62,1.152,3.99,4.654,7,7l3,1v2h2v2h2v2c4.11,2.527,4.61,7.552,10,9v2c2.74,0.644,2.28,1.309,5,2v3c4.57,2.682,5.98,7.645,12,9v2l3,2c0.33,1,.67,2,1,3h2c0.67,1,1.33,2,2,3h2c0.67,1,1.33,2,2,3h1c0.33,1,.67,2,1,3l3,1v2c3.96,0.863,4.85,2.48,7,5h1v2c0.67,0.333,1.33.667,2,1v1h2c0.33,0.667.67,1.333,1,2l3,1v1l3,1v2l3,2v1h2c0.67,1,1.33,2,2,3l3,1c0.33,1,.67,2,1,3,3.5,2.727,6.51.484,8,6h2v2c2.51,0.593,6.25,3.415,8,5,0.33,0.667.67,1.333,1,2h2v1c3.71,2.106,5.75,1.109,7,6,3.62,0.836,11.08,6.3,12,10h4v1c1.96,1.351,2.29,2.231,5,3v2h3c1.66,2.7,4,2.565,5,6a14.022,14.022,0,0,1,8,4c0.33,0.667.67,1.333,1,2h3l3,4h2c0.33,0.667.67,1.333,1,2h2c0.67,1,1.33,2,2,3h2c0.67,1,1.33,2,2,3h2c0.67,1,1.33,2,2,3h2c0.33,0.667.67,1.333,1,2h2c0.67,1,1.33,2,2,3l3,1c0.67,1,1.33,2,2,3,3.09,1.9,2.58-1.793,4,3,5.43,1.316,8.76,6.543,14,8v2c1.67,0.333,3.33.667,5,1v3c2.74,0.644,2.28,1.309,5,2v2h3c1.66,2.7,4,2.565,5,6,1.67,0.333,3.33.667,5,1v2q7.005,5,14,10v2h3l6,7c3.29,2.006,3.41-1.674,5,4h2v2h2v2c5.01,2.376,6.93,5.677,10,10l3,2v2l3,2v2l3,2v2l3,2v2c0.67,0.333,1.33.667,2,1v2l3,2v2c1.33,1,2.67,2,4,3,0.33,1.333.67,2.667,1,4l3,2v2l3,2v3h1c1.33,1.853,1.58,1.931,2,5h2a18.919,18.919,0,0,0,3,7c0.67,0.333,1.33.667,2,1,0.67,2,1.33,4,2,6,0.67,0.333,1.33.667,2,1,0.33,1.333.67,2.667,1,4,0.67,0.333,1.33.667,2,1v2c1.35,2.379,3.16,3.891,4,7h2v6h-2c-0.33,1.667-.67,3.333-1,5-2.76.723-2.24,0.279-3,3-2.76.723-2.24,0.279-3,3-2.76.723-2.24,0.279-3,3l-3,1v3h-3v2c-1.67.333-3.33,0.667-5,1-0.33,1.667-.67,3.333-1,5l-6,1v2c-1.67.333-3.33,0.667-5,1-0.33,1-.67,2-1,3h-3v2c-1.67.333-3.33,0.667-5,1v2h-3v1c-1.14,1.139-.4,0-1,2l-6,1c-0.67,1-1.33,2-2,3l-3-1v1h-3c-0.33,1-.67,2-1,3-2.89-.049-5.41-0.152-7,1-0.33.667-.67,1.333-1,2a1.416,1.416,0,0,1-2-1h-1v1h-6v1c-1.14,1.139-.4,0-1,2-7.84-.117-13.39,1.561-19,3v-2c-1.14,1.139-.4,0-1,2-7.59.414-17.02,1.006-26,1h-9v-1h-1v1l-3-1a1.7,1.7,0,0,1-2,1s-0.25-1.289-2-1v1h-6v-1c-4.4-1.273-5.34-.206-9,0v-2l-15-1v-2l-17-2c-0.67-1-1.33-2-2-3-1.67.333-3.33,0.667-5,1v-1c-1.14-1.139-.4,0-1-2l-9-1v-2l-9-1v-2l-6-1v-2c-2.74-.39-3.07.113-4-2,0,0-.21-2.17-1-1v2h-3v-2l-6-1v-2l-6-1c-0.33-1-.67-2-1-3h-3v-2l-6-1v-2c-1.67-.333-3.33-0.667-5-1,0.33-.667.67-1.333,1-2l-7-1c0.33-.667.67-1.333,1-2l-7-1v-1h1v-1h-2v-3l-6-1v-2c-2.89-.285-6.06-0.606-4-3-1.67-.333-3.33-0.667-5-1-1.39-5.663-1.82-.973-5-3v-1h1c-1.55-1.6-1.96-1.773-5-2-0.72-2.762-.28-2.237-3-3-0.33-1-.67-2-1-3h-3v-2c-2.76-.723-2.24-0.279-3-3-1.67-.333-3.33-0.667-5-1-0.72-2.762-.28-2.237-3-3v-2h-3v-3h-1v-1h-3v-2c-2.76-.723-2.24-0.279-3-3-2.76-.723-2.24-0.279-3-3-1.67-.333-3.33-0.667-5-1-0.33-1.667-.67-3.333-1-5h-4c0.33-1,.67-2,1-3h-2v-1h-3v-3h-3v-2h-2c0.33-1,.67-2,1-3h-4c0.33-1,.67-2,1-3-1.13-1.5-1.85,1.084-3-3l-5-1c-0.33-1.667-.67-3.333-1-5-2.76-.723-2.24-0.279-3-3h-2v-3h-3v-3h-1c-1.139-1.139,0-.4-2-1v-2h-2q0.5-1.5,1-3h-2v-1h-3v-3h-3v-3h-2q0.5-1.5,1-3c-1.918-.244-3.1.116-4-1s0.949-.744,1-1c1.525-1.33-1.917-.974-2-1-0.723-2.762-.279-2.237-3-3v-3c-0.485-1.054-3.224-.752-1-3h-3a1.907,1.907,0,0,1,0-3h-2c-0.723-2.762-.279-2.237-3-3q-0.5-3-1-6h-2c-0.723-2.762-.279-2.237-3-3q-0.5-3-1-6h-2q-0.5-2.5-1-5h-2v-3h-3q-0.5-3-1-6h-2v-3h-1c-1.139-1.139,0-.4-2-1q-0.5-3-1-6h-2c-0.723-2.762-.279-2.237-3-3q-0.5-3-1-6h-2q-0.5-2.5-1-5h-2q-0.5-3.5-1-7h-2q-0.5-2.5-1-5h-2q-0.5-3-1-6h-2q-0.5-3-1-6h-2q-0.5-3-1-6h-2q-0.5-3-1-6h-2q-0.5-4.5-1-9l-3-1v-3h-2q-0.5-5.5-1-11c-3.586-.936-3.156-2.61-3-7h-2a39.688,39.688,0,0,1-1-8h-2q-0.5-3.5-1-7h-2q-0.5-5.5-1-11h-2a29.413,29.413,0,0,0-1-7h-2q-0.5-6.5-1-13h-2q-0.5-6-1-12h-2q-0.5-9-1-18h-2q-0.5-8.5-1-17h-2c-0.018-11.705-.506-28.533-2-36v-4h1v-5h-1q0.5-3,1-6h-1q1-18,2-36h2q0.5-9,1-18h2q0.5-6,1-12h2q0.5-4.5,1-9h2q0.5-4.5,1-9h2q0.5-4.5,1-9h2q0.5-3,1-6h2q0.5-3.5,1-7h2q0.5-2.5,1-5h2q0.5-3,1-6h2q0.5-3,1-6c2.762-.723,2.237-0.279,3-3h2q0.5-3,1-6h3v-3l5-1v1h1q0.5,4,1,8l2,1v3h1v4l2,1q0.5,3,1,6l2,1q0.5,3.5,1,7l2,1v3h1v2l2,1v4h1v2l2,1v3h1v2l2,1v3h1v2C951.6,488.085,952.61,487.967,953,493Z" transform="translate(-73.906 -78)"/>
</svg>
