<svg xmlns="http://www.w3.org/2000/svg" width="870" height="853.031" viewBox="0 0 870 853.031">
  <defs>
    <style>
      .cls-1 {
        fill: #51483e;
        fill-rule: evenodd;
      }
    </style>
  </defs>
  <path id="Color_Fill_1" data-name="Color Fill 1" class="cls-1" d="M231,40v2l15,1v2l17,2,2,3,5-1v1c1.139,1.139.4,0,1,2l9,1v2l9,1v2l6,1v2c2.742,0.39,3.069-.113,4,2,0,0,.206,2.17,1,1V62h3v2l6,1v2l6,1,1,3h3v2l6,1v2l5,1-1,2,7,1-1,2,7,1v1h-1v1h2v3l6,1v2c2.89,0.285,6.063.606,4,3l5,1c1.391,5.663,1.818.974,5,3-0.23,1.4.121,0.138-1,1,1.548,1.6,1.961,1.773,5,2,0.723,2.762.279,2.237,3,3l1,3h3v2c2.762,0.723,2.237.279,3,3l5,1c0.723,2.762.279,2.237,3,3v2h3v3h1v1h3v2c2.762,0.723,2.237.279,3,3,2.762,0.723,2.237.279,3,3l5,1q0.5,2.5,1,5h4l-1,3h2v1h3v3h3v2h2l-1,3h4l-1,3c1.131,1.5,1.851-1.084,3,3l5,1q0.5,2.5,1,5c2.762,0.723,2.237.279,3,3h2v3h3v3h1c1.139,1.139,0,.4,2,1v2h2l-1,3h2v1h3v3h3v3h2l-1,3a9.749,9.749,0,0,1,4,1v1h-1c-1.889.86,2,1,2,1,0.723,2.762.279,2.237,3,3v3c0.485,1.054,3.224.752,1,3h3a1.907,1.907,0,0,1,0,3h2c0.723,2.762.279,2.237,3,3q0.5,3,1,6h2c0.723,2.762.279,2.237,3,3q0.5,3,1,6h2q0.5,2.5,1,5h2v3h3q0.5,3,1,6h2v3h1c1.139,1.139,0,.4,2,1q0.5,3,1,6h2c0.723,2.762.279,2.237,3,3q0.5,3,1,6h2q0.5,2.5,1,5h2q0.5,3.5,1,7h2l1,5h2q0.5,3,1,6h2q0.5,3,1,6h2q0.5,3,1,6h2q0.5,3,1,6h2q0.5,4.5,1,9l3,1v3h2q0.5,5.5,1,11c3.586,0.936,3.156,2.61,3,7h2a39.688,39.688,0,0,1,1,8h2q0.5,3.5,1,7h2q0.5,5.5,1,11h2a29.413,29.413,0,0,0,1,7h2q0.5,6.5,1,13h2q0.5,6,1,12h2q0.5,9,1,18h2q0.5,8.5,1,17h2c0.018,11.7.506,28.533,2,36v4h-1v5h1q-0.5,3-1,6h1q-1,18-2,36h-2q-0.5,9-1,18h-2q-0.5,6-1,12h-2q-0.5,4.5-1,9h-2q-0.5,4.5-1,9h-2q-0.5,4.5-1,9h-2q-0.5,3-1,6h-2q-0.5,3.5-1,7h-2q-0.5,2.5-1,5h-2q-0.5,3-1,6h-2q-0.5,3-1,6c-2.762.723-2.237,0.279-3,3h-2q-0.5,3-1,6h-3v3l-5,1c-0.844-1.135.127-.145-1-1q-0.5-4-1-8l-2-1v-3h-1v-4l-2-1q-0.5-3-1-6l-2-1q-0.5-3.5-1-7l-2-1v-3h-1v-2l-2-1v-4h-1v-2l-2-1v-3h-1v-2l-2-1v-3h-1v-2c-1.6-3.085-2.61-2.967-3-8h-2c-0.434-5.268-2.947-6.572-4-11h-2q-0.5-2.5-1-5l-2-1v-3l-2-1-1-4h-1v-2h-1v-2h-1v-2h-1v-3l-3-2v-3l-3-2v-2l-2-1v-3l-3-2v-3l-2-1c-1.155-1.431-1.494-2.9-2-5h-2v-3h-1c-1.139-1.139,0-.4-2-1l-1-5h-2c-0.432-4.494-2.332-5.173-4-8v-2l-3-2v-2l-2-1-1-4-2-1-1-3h-1a8.224,8.224,0,0,1-2-4h-2v-3h-1c-1.139-1.139,0-.4-2-1l-1-5h-2v-3h-1c-1.139-1.139,0-.4-2-1v-3l-3-2v-2c-1.847-2.591-3.772-1.66-5-6-2.762-.723-2.237-0.279-3-3h-2c-2.319-1.412.086-3.558-5-5l-1-5h-2l-1-4c-4.619-1.152-3.99-4.654-7-7l-3-1v-2h-2v-2h-2v-2c-4.108-2.527-4.606-7.552-10-9v-2c-2.739-.644-2.276-1.309-5-2v-3c-4.571-2.682-5.98-7.645-12-9v-2l-3-2-1-3h-2l-2-3h-2l-2-3h-1l-1-3-3-1v-2c-3.96-.863-4.851-2.48-7-5h-1v-2l-2-1v-1h-2l-1-2-3-1v-1l-3-1v-2l-3-2v-1h-2l-2-3-3-1-1-3c-3.5-2.727-6.506-.484-8-6h-2v-2c-2.51-.593-6.249-3.415-8-5l-1-2h-2v-1c-3.713-2.106-5.754-1.109-7-6-3.616-.836-11.076-6.3-12-10h-4v-1c-1.96-1.351-2.289-2.231-5-3v-2h-3c-1.659-2.7-4-2.565-5-6a14.025,14.025,0,0,1-8-4l-1-2h-3l-3-4h-2l-1-2h-2l-2-3h-2l-2-3h-2l-2-3h-2q-0.5-1-1-2h-2l-2-3-3-1-2-3c-3.09-1.9-2.578,1.793-4-3-5.435-1.316-8.763-6.543-14-8v-2l-5-1v-3c-2.739-.644-2.276-1.309-5-2v-2h-3c-1.659-2.7-4-2.565-5-6l-5-1v-2l-14-10v-2h-3l-6-7c-3.294-2.006-3.409,1.674-5-4h-2v-2h-2v-2c-5.011-2.376-6.932-5.677-10-10l-3-2v-2l-3-2v-2l-3-2v-2l-3-2v-2l-2-1v-2l-3-2v-2l-4-3q-0.5-2-1-4l-3-2v-2l-3-2v-3H94c-1.333-1.853-1.583-1.931-2-5H90a18.908,18.908,0,0,0-3-7l-2-1-2-6-2-1-1-4-2-1v-2c-1.346-2.379-3.163-3.891-4-7H72V97h2l1-5c2.762-.723,2.237-0.279,3-3,2.762-.723,2.237-0.279,3-3,2.762-.723,2.237-0.279,3-3l3-1V79h3V77l5-1,1-5,6-1V68l5-1,1-3h3V62l5-1V59h3V58c1.139-1.139.4,0,1-2l6-1,2-3,3,1V52h3l1-3c2.887,0.049,5.406.152,7-1l1-2a1.416,1.416,0,0,1,2,1h1V46h6V45c1.139-1.139.4,0,1-2,7.841,0.117,13.388-1.561,19-3v2h1V40c7.594-.414,17.018-1.006,26-1h9v1c1.41,0.106-.405-0.843,1-1l3,1a1.7,1.7,0,0,1,2-1s0.252,1.289,2,1V39h6v1C226.4,41.273,227.345,40.206,231,40ZM63,149h2v1H64c-1.889.86,2,1,2,1a16.154,16.154,0,0,0,4,9l2,1v3h2c0.254,2.252.1,2.638,1,4h1v2h1v2l2,1v3l4,3,2,6,4,3v2l2,1v3l2,1a14.188,14.188,0,0,1,4,7h2a7.911,7.911,0,0,0,2,4h1q0.5,2,1,4h1a8.329,8.329,0,0,1,2,4h2v3h1c1.139,1.139,0,.4,2,1v2c2.693,1.806,3.117,4.335,5,7l3,2c1.973,2.757,1.144,3.967,5,5v2h2q0.5,1,1,2h1v2l2,1v2l3,2v2h2v2l6,5v1c1.972,1.46.8-.826,3,2h1v2h2c1.168,4.431,3.76,3.55,5,8,8.624,2.3,10.148,13.767,19,15,1.168,4.431,3.76,3.55,5,8,3.16,0.763,3.65,2.227,7,3v2c2.46,1.339,3.295,3.818,5,5,1.137,0.788,4.288.809,5,2v2h2c0.792,3.079,1.883,3.376,5,4v2l4,1v2l14,10v2h3a18.246,18.246,0,0,0,6,6h2l1,2c2.654,2.48,5.482,5.451,10,6v2c4.117,1.009,5.04,3.9,9,5l1,3h3v2h3c2.317,3.8,4.471,3.636,8,6l1,2h2l4,5,4,1,3,4,4,1,3,4h2v1h2v1c2.747,1.7,1.842-.916,3,3h2v2c0.912,1.4,2.443.1,4,1l1,2h2c2.761,1.915.9,3.4,6,4v2c4.431,1.168,3.55,3.76,8,5v2c5.636,0.682,3.244,2.492,6,4h2v2h2v2l5,1v2a32.168,32.168,0,0,1,9,6l2,3h2l2,3h2l3,5c3.5,2.74,6.5.468,8,6h2v2l10,7v2l2,1v1h2l1,2c2.568,1.869,1.832-1.079,3,3h3v3l12,10v2l6,5v1h2v2c3.087,0.7,4.254,1.949,5,5h2v2c5.118,3.415,6.223,11.191,13,13,0.871,3.428,2.068,2.575,3,6h2v2c1.382,1.181.967,1.829,2,3l2,1,1,3h2l1,5h2v3h1c1.139,1.139,0,.4,2,1,0.349,7.291,5.5,8.716,7,15h2q0.5,2.5,1,5h1v2l2,1v3l2,1v3h1v2l2,1v3h1v2l2,1v3h1v2l2,1v3h1l1,4h1v3h1v4l2,1q0.5,4,1,8h2q0.5,4,1,8h1l1,4h1v8l2,1v2h1v12l2,1v5a17.015,17.015,0,0,1,0,8h-2v2h-3v1c-1.139,1.139-.4,0-1,2l-6,1v1c-1.889,1.321-1.916,1.549-5,2-0.574,2.01.12,0.865-1,2v1h-3l-1,2h-2v1h-5v1h-2l-1,2c-1.611,1.211-4.1.959-7,1v2l-10,1-1,2-8,1-1,2-3-1v1l-19,1v2c-12.564.033-21.9-.84-28,0v-2h-5v2h-3v-2h-5c-1.385-.284.406-1.155-1-1a1.832,1.832,0,0,1-2,1v-1c-1.352-.042-1.645,1.688-4,1v-1h-2v-1c-0.6-.049-2.047.916-4,1v-2h-5v-1h-1a2.8,2.8,0,0,1-3,1v-1h-2v-1c-0.585-.053-2.045.928-4,1v-2l-3-1a2.644,2.644,0,0,1-3,1v-1h-2v-1c-0.549-.051-2.08.921-4,1v-2a34.651,34.651,0,0,0-7-1v-2l-6-1v-1h-1v1l-5-1v-2l-6-1v-2c-1.139,1.139-.4,0-1,2h-2v-2h-3v-1c-1.139-1.139-.4,0-1-2l-6-1v-2c-6.9-.03-8.932-2.791-14-4v-2l-6-1v-2l-6-1c-0.723-2.762-.279-2.237-3-3v-2l-6-1c-0.723-2.762-.279-2.237-3-3v-2l-6-1v-2l-6-1v-3h-3l-1-3h-3v-2l-5-1c-0.723-2.762-.279-2.237-3-3v-2l-5-1,1-3h-3v-2l-5-1v-3h-3v-2h-3c-0.653-1.322-1.58-1.36-2-2q0.5-1,1-2h-3v-2c-2.762-.723-2.237-0.279-3-3l-5-1c-0.723-2.762-.279-2.237-3-3-0.723-2.762-.279-2.237-3-3-0.723-2.762-.279-2.237-3-3-0.723-2.762-.279-2.237-3-3-0.723-2.762-.279-2.237-3-3v-2h-3v-3h-1c-1.139-1.139,0-.4-2-1-0.723-2.762-.279-2.237-3-3-0.723-2.762-.279-2.237-3-3-0.723-2.762-.279-2.237-3-3q-0.5-2.5-1-5h-3v-3c-2.762-.723-2.237-0.279-3-3-2.762-.723-2.237-0.279-3-3l-3-1v-3h-2c-0.723-2.762-.279-2.237-3-3q-0.5-2.5-1-5l-3-1v-3h-3v-2h-2q-0.5-3-1-6c-2.762-.723-2.237-0.279-3-3h-2v-3h-3v-3h-1c-1.139-1.139,0-.4-2-1q-0.5-2.5-1-5h-2v-3h-1c-1.139-1.139,0-.4-2-1q-0.5-3-1-6h-3v-3h-2q-0.5-3-1-6h-2q-0.5-2.5-1-5H99v-3H98c-1.139-1.139,0-.4-2-1l-1-5H93v-3H92c-1.139-1.139,0-.4-2-1l-1-6H87l-1-5c-3.586-.936-3.156-2.61-3-7H81l-1-5H78v-3H77c-1.139-1.139,0-.4-2-1a34.228,34.228,0,0,0-1-8H72v-3H71c-1.139-1.139,0-.4-2-1l-1-9H66l-1-6H63l-1-9H60l-1-5H57l1-3-2-1v-5H54l-1-9c-4.409-1.188-3.255-4.731-3-10H48a39.652,39.652,0,0,1-1-8H45l-1-10H42l-1-12H39l-1-10H36l-1-17H33l-1-21H30V265H29V246l1-46h2l1-18h2l1-12h2l1-10h2l1-9h2l1-8h2l1-7h2v-3a7.174,7.174,0,0,0,4-1v1l2,1,1,5h1v2l2,1v3h1A8.521,8.521,0,0,1,63,149ZM747,263v2l3-2c0.925,0.54.344,1.844,2,2v-1l3-1v3h1v-1l3,1v-1h2c-0.216,4.864-1.068,3.385-2,7h-2c-1.187,4.073-.775,1.056-3,3-1.194,1.044-1.569,3.162-2,5-2.762.723-2.237,0.279-3,3h-2v2h-1a21.266,21.266,0,0,1-3,4v1h-2v2h-2c-1.107,4.237-3.875,4.177-5,9h-2a7.576,7.576,0,0,1-2,4h-1q-0.5,1.5-1,3h-2q0.5,1,1,2l-2,1-2,3h-1v2h-1a7.792,7.792,0,0,0-2,4c-3.079.792-3.376,1.883-4,5h-2v3h-2c-1.3,5.345-5.692,7.419-7,13h-2v3h-1c-1.139,1.139,0,.4-2,1v3h-2q-1,3-2,6l-3,2v2c-2.691,4.016-6.262,6.875-7,13h-2c-0.992,3.966-2.672,3.627-3,9h-2c-0.532,1.311-.417-0.288-1,1v3l-2,1v2h-1v2l-2,1c-1.485,2.384-1.775,4.493-2,8l-3,1v3h-2c-0.365,3.112-.722,3.106-2,5h-1q-0.5,3-1,6h-2c-0.165,3.62-.573,3.974-2,6h-1v3h-1v2l-2,1v3l-2,1q-0.5,2-1,4l-2,1v2h-1q-0.5,3-1,6l-2,1v3h-1v3h-1v3h-1v4l-2,1q-0.5,2.5-1,5l-2,1q-0.5,2.5-1,5h-1v2h-1v4h-1v4h-1v2h-1v3h-1v3h-1v2h-1q-0.5,2-1,4h-1l-3,15h-2q-0.5,3.5-1,7h-1c0.2,1.1,1.966,2.8,1,5l-2,1q-0.5,2.5-1,5h-1v6h-1v3h-1v4l-2,1v3h-1q-0.5,5-1,10h-1v2h-1v4h-1v4h-1v5h-1v4h-1v8h-1v2h-1v9l-2,1v3h-1v8h-1v2h-1v10h-1v2h-1v5h-1v1a2.6,2.6,0,0,1,1,3h-1q-0.5,3-1,6h-1c0.128,1.3,1.884,3.443,1,6h-1v2h-1v9h-1v4h-1v4h-1v12h-1q-0.5,7.5-1,15h-1v5h-1v5h-1q-0.5,7.5-1,15h-1v4h-1v4h-1v9h-1v7h-1v4h-1q-0.5,8-1,16h-1v2h-1q-0.5,6.5-1,13h-1v3h-1v7h-1v3h-1v2h-1v8l-2,1-3,14h-1v3h-1l-3,9h-2c-0.343,7.056-5.114,8.963-6,16h-2q-0.5,3-1,6l-2,1v3l-2,1v2l-2,1v3l-2,1v2h-1v2h-1v2h-1v2l-2,1v3l-3,2v2l-2,1v3l-3,2v2l-3,2q-0.5,2.5-1,5h-2q-0.5,3-1,6c-6.493,1.174-8.538.309-15,0v-2c-1.728.868-.342,0.115-1,2h-1v-2l-8-1v-2c-1.139,1.139-.4,0-1,2h-2c-0.723-2.762-.279-2.237-3-3v-2a40.116,40.116,0,0,1-9-1v-2l-5-1v-2a34.651,34.651,0,0,0-7-1v-3h-3v-2h-4l-1-3-6-1v-2a15.682,15.682,0,0,0-6-1c-0.262-3.176-1.01-3.822-2-6l-4,1q-0.5-3-1-6h-5c-0.317-3.543-1.314-3.949-2-7h-5v-3h-2v-3h-3q-0.5-3-1-6h-2v-2h-3l1-3h-2v-3h-3v-3l-3-1v-3h-2c0.083-2.326.811-2.566,1-4h-1a9.462,9.462,0,0,1-1-4h-2v-3l-2-1q-0.5-2.5-1-5h-1c-1.139-1.139,0-.4-2-1l1-3h-1v1c-1.581,1.142-.931-2.458-1-3h1v-1h-1c-1.139,1.139,0,.4-2,1,0.574-2.444,1.047-2.206,2-4h-3v-3h-2v-3h2v-1c-1.975-1.129-2.338-1.417-3-4h-2v-4h2v-1c-3.512-2.461-.243-2.26-2-5h-1c-1.139,1.139,0,.4-2,1l1-3h1l-1-3h-1q-0.5-6-1-12h-2c-0.139-5.319-1.537-8.821,0-13h-3v-8h1v-1h-1v-2h-1a2.661,2.661,0,0,1,1-3v-1h-1v-5h-2V704h2c-1.139-1.139,0-.4-2-1-0.175-8.081-1.287-12.42,0-17v-7h1c1.139-1.139,0-.4,2-1l-1,3h9v-3c3.691,0.4,11.515,0,18,0v-2h3v2c1.139-1.139.4,0,1-2l18-1v-2l12-1v-2l8-1v-3l5,1v-1c1.139-1.139.4,0,1-2,6.921-.558,8.708-3.557,15-4v-2c0.915-1.4,2.486-.071,4-1l3-4h2l1-2h3l2-3h3l2-3h1c1.052-1.864-.678-3.889,1-5h2c1.139-1.139,0-.4,2-1v-2c2.762-.723,2.237-0.279,3-3,2.762-.723,2.237-0.279,3-3h2c1.439-2.465,3.138-2.788,4-6h2c0.979-3.374,1.212-1.913,3-4h1v-2h2q0.5-1.5,1-3l3-2v-3h1q0.5-1.5,1-3h1a11.878,11.878,0,0,0,1,5h1v-1h1v-4h3v-1h1v-1h-1c-0.979-1.654,1.44-.846,2-1,0.5-3.861,2.012-4.768,4-7l2-1v-3h2q-0.5-1.5-1-3h2q0.5-3.5,1-7h2a3.982,3.982,0,0,1,2-2q-0.5-1.5-1-3h2v-3h3v-1h-2v-4l3-1v-3h2v-3h2q-0.5-1.5-1-3h2q0.5-5,1-10h2v-7l2-1q-0.5-1.5-1-3h3v-1h-1v-5h3q0.5-6.5,1-13h2q0.5-10.5,1-21h2V486h2c-2.508-6.779-1.052-19.422-1-28h3v-2l-2,1v-1h-1v-8h1c-0.257-1.487-1.578-3.258-1-6,0.292-1.384,1.343.372,1-1h-1c-0.877-4.524-.136-12.011,1-15h-2V411h-2v-4h2c-1.139-1.139,0-.4-2-1q-0.5-9.5-1-19h-2q-0.5-9.5-1-19l-3-1a7.173,7.173,0,0,1,1-4h-1c-1.139-1.139,0-.4-2-1q-0.5-6.5-1-13h-2v-7h-1c-0.5-1.66,1.235-3.7,1-4h-2c-1.06-1.14-.717-1.914-1-4h2c1.212-2.128,2.252-2.177,3-5l6-1v-3c3.215-.77,2.155-1.508,6-2v-3a11.58,11.58,0,0,0,5-2v-1h3v-1c-1.139-1.139-.4,0-1-2h5v-2h1v-1c3.118-2.2,4.228,1.8,6-4h3v-2l5-1v-2l6-1q0.5-2,1-4h2v1c1.338,0.35,2.535-2.775,3-3h5l3-5,9-1v-2l6-1v-2l5-1q0.5-1,1-2a7,7,0,0,1,6,0v-1c1.139-1.139.4,0,1-2,2.8,0.028,5.2-.021,7-1q0.5-1,1-2l3,2v-2l5-1q0.5-1,1-2l12-1v-2l12-1v-2c9.3,0.088,11.066-1.009,19-1v-2h16v-1l4,1v-1l3,1v-1c2.034-.306,2,1,2,1C731.412,263.765,740.891,263.014,747,263Zm57,18v2h5v3h1c1.139-1.139,0-.4,2-1v1h-1c-1.889.86,2,1,2,1v1l3-1v3h5v3h1c1.139-1.139,0-.4,2-1v3l3-1v4c1.666,1.106.929-1.689,2,0,1.139,1.139.4,0,1,2l4-1v3h2v3h3v3h3q0.5,2.5,1,5h3v3h3v3h3v3h2c0.27,4.5,1.524,6.572,6,7-0.113,3.16-1.955,1.874,1,3v3h2v3h3q0.5,2.5,1,5h2q0.5,3.5,1,7h2q0.5,2.5,1,5h2c0.339,3.955.964,2.907,0,6l2-1v1c1.139,1.139.4,0,1,2h-2v2c2.391,0.463,3.145,1.158,5,2q0.5,4,1,8l2,1v2h1c0.79,2.169-.795,2.774-1,4h1v2h1q0.5,1.5,1,3h-2c1.212,2.128,2.252,2.177,3,5h2c-0.092,4.284-.217,4.695-1,7h1v-1c1.581-1.142.931,2.458,1,3h-1v4c2.784-.549.1-0.77,3,0a9.238,9.238,0,0,1-2,2q0.5,1.5,1,3h-1v1h3v1c-1.732,1.893-.133,11.536,0,16h2c-0.013,6.436.47,14.546,1,17v4h-1q0.5,3.5,1,7a1.7,1.7,0,0,0-1,2h1v4c0.081,0.185,1.6.656,2,2-0.426,1.349-.783-0.4-1,1h1q-0.5,2.5-1,5h-1q-0.5,14-1,28h-2v2h2q-0.5,1.5-1,3h1v6c-0.214,1.4-1.033-.414-1,1h1v3h-3v1c1.616,1.874.131,6.065,0,10q-0.5,3-1,6h-1q-0.5,7.5-1,15h-2q-0.5,6-1,12h-2q-0.5,7-1,14l-2,1q-0.5,4.5-1,9h-2q-0.5,4-1,8h-2c1.139,1.139,0,.4,2,1v3h-1c-1.139,1.139,0,.4-2,1-0.14,6.538-2.736,7.918-3,15h-2q-0.5,4-1,8h-2q-0.5,3.5-1,7h-2v5l-3,1q-0.5,4-1,8h-2q-0.5,2.5-1,5h-1q0.5,1.5,1,3h-2q-0.5,2.5-1,5h-2a15.682,15.682,0,0,0-1,6l-3,1c1.01,3.129.557,1.518,0,5h-2q-0.5,3-1,6h-2q-0.5,3-1,6l-3,1v3h-2v5l-3,1q-0.5,2-1,4l-2,1v3h-1q-0.5,1.5-1,3h-2v4h-2q-0.5,2.5-1,5h-2q-0.5,3-1,6l-3,1v3h-2q-0.5,3-1,6h-1c-2.767,3.514-1.547.331-4,2-1.212.825-3.55,6.852-4,9h-2v4h-3c-1.1,4.969-3.754,4.648-4,11h-4c-1.049,2.4-1.12,3.212-4,4q-0.5,2.5-1,5h-2c-0.723,2.762-.279,2.237-3,3v3l-4,1v5c-2.762.723-2.237,0.279-3,3h-3v3c-2.762.723-2.237,0.279-3,3h-2v3l-4,1c-0.644,2.739-1.309,2.276-2,5h-3v1c-1.139,1.139-.4,0-1,2h-3v4h-2v2h-3c0.549,2.784.77,0.1,0,3h-3c-0.684,2.927-1.113,3.274-4,4v2h-2c-1.439,2.465-3.138,2.788-4,6l-5,1q-0.5,1.5-1,3h-3v3h-2c-0.723,2.762-.279,2.237-3,3v2c-4.586.653-2.458,0.91-5,3v1h-3v2h-3v3l-5,1v2c-2.762.723-2.237,0.279-3,3l-6,1v2h-3v3l-5,1v2l-6,1v2c-4.586.653-2.458,0.91-5,3v1h-3v2l-6,1v2c-2.732.232-7.238,0.593-5,3l-6,1v2l-6,1v2l-6,1v2l-6,1v2l-5,1v2h-2q0.5-1,1-2h-3v2l-6,1v2l-9,1v2l-9,1v2l-12,1v2l-15,1v2l-28,1q-0.5-1.5-1-3h1v-2l2-1q0.5-2.5,1-5l2-1c1.367-1.7,1.675-3.169,2-6h2q0.5-1.5,1-3h1v-3l2-1c1.375-1.715,1.652-3.164,2-6h2c1.191-5.69,5.622-7.991,7-14h2q0.5-2.5,1-5l2-1q0.5-2,1-4l2-1q0.5-2.5,1-5l3-2v-3h1q0.5-2,1-4h1a21.426,21.426,0,0,0,3-9h2q0.5-3,1-6l2-1v-3l2-1v-2h1c0.248-1.872-1.33-.228,0-4l3-1q0.5-3,1-6h2c0.11-4.651,1.868-6.872,3-10q1-4.5,2-9l2-1q0.5-3,1-6l2-1v-3h1v-2h1q0.5-5,1-10l3-2v-4h1v-2h1v-4h1v-6l2-1v-2h1q0.5-5,1-10h1v-2h1v-4h1v-2h1q0.5-5.5,1-11l2-1v-6h1v-6h1v-2h1v-5h1v-5h1v-3h1v-4h1q-0.5-2.5-1-5h1v-3h1v-7h1q0.5-5,1-10h1v-4h1v-4h1V622h1v-6h1v-9h1v-6h1v-7h1v-3h1q-0.5-2.5-1-5h1q0.5-3,1-6h1q-0.5-3-1-6h1v-5h1q0.5-4.5,1-9l2-1V546c0.134-4.8,2.268-6.506,3-10q-0.5-2.5-1-5h1v-2h1v-4h1q0.5-6.5,1-13h1v-6l2-1q0.5-6,1-12l2-1v-9h1v-3h1v-2h1v-7h1v-2h1q0.5-2.5,1-5h1v-8h1v-3h1v-2h1q0.5-3,1-6h1v-6h1v-3l2-1v-3h1v-2h1q1-6,2-12l2-1q0.5-3,1-6l2-1v-3l2-1q1-5,2-10h2q1-4.5,2-9l2-1,3-9,2-1q0.5-2.5,1-5h1a9.023,9.023,0,0,0,2-4h2v-4c3.518-2.151,3.676-5.653,6-9l3-2q0.5-1.5,1-3l2-1v-3l3-2v-2l2-1v-2h1c1.825-2.22,3.23-3.624,4-7h2c0.871-3.428,2.068-2.575,3-6h2q0.5-1.5,1-3l3-2v-2l2-1c2.233-2.361,6.114-5.61,7-9,4.073-1.187,1.056-.775,3-3,1.044-1.194,3.162-1.569,5-2,0.705-3.087,1.949-4.254,5-5v-2l3-1,5-6h2l2-3h2l2-3c1.6-.947,2.817.131,4-1v-2h1v1C800.366,279.807,800,280.6,804,281Z" transform="translate(-29 -38.969)"/>
</svg>
